<?xml version="1.0" encoding="iso-8859-1"?>
<!-- Generator: Adobe Illustrator 19.0.0, SVG Export Plug-In . SVG Version: 6.00 Build 0)  -->
<svg version="1.1" id="Layer_1" xmlns="http://www.w3.org/2000/svg" xmlns:xlink="http://www.w3.org/1999/xlink" x="0px" y="0px"
	 viewBox="0 0 503.607 503.607" style="enable-background:new 0 0 503.607 503.607;" xml:space="preserve">
<g>
	<g>
		<g>
			<path d="M134.295,41.968c-9.258,0-16.787,7.529-16.787,16.787c0,9.258,7.529,16.787,16.787,16.787
				c9.258,0,16.787-7.529,16.787-16.787C151.082,49.497,143.553,41.968,134.295,41.968z"/>
			<path d="M58.754,41.968c-9.258,0-16.787,7.529-16.787,16.787c0,9.258,7.529,16.787,16.787,16.787
				c9.258,0,16.787-7.529,16.787-16.787C75.541,49.497,68.012,41.968,58.754,41.968z"/>
			<path d="M209.836,41.968c-9.258,0-16.787,7.529-16.787,16.787c0,9.258,7.529,16.787,16.787,16.787
				c9.258,0,16.787-7.529,16.787-16.787C226.623,49.497,219.094,41.968,209.836,41.968z"/>
			<path d="M479.501,0.001H24.106C10.819,0.001,0,10.82,0,24.107v76.615h503.607V24.107C503.607,10.82,492.787,0.001,479.501,0.001z
				 M58.754,92.329c-18.516,0-33.574-15.058-33.574-33.574s15.058-33.574,33.574-33.574s33.574,15.058,33.574,33.574
				S77.27,92.329,58.754,92.329z M134.295,92.329c-18.516,0-33.574-15.058-33.574-33.574s15.058-33.574,33.574-33.574
				s33.574,15.058,33.574,33.574S152.811,92.329,134.295,92.329z M209.836,92.329c-18.516,0-33.574-15.058-33.574-33.574
				s15.058-33.574,33.574-33.574s33.574,15.058,33.574,33.574S228.352,92.329,209.836,92.329z"/>
			<path d="M251.803,335.739c18.516,0,33.574-15.058,33.574-33.574s-15.058-33.574-33.574-33.574s-33.574,15.058-33.574,33.574
				S233.287,335.739,251.803,335.739z"/>
			<path d="M167.583,339.071c5.741,13.161,4.356,28.118-3.693,40.012l-5.338,7.881l11.919,11.919l8.024-5.884
				c11.583-8.494,26.465-10.433,39.852-5.187c13.362,5.254,22.964,16.804,25.676,30.905l1.805,9.35h16.854l0.739-4.809
				c2.233-14.512,11.659-26.523,25.231-32.147c13.555-5.615,28.731-3.785,40.565,4.902l3.92,2.871l11.919-11.919l-5.338-7.881
				c-8.049-11.894-9.434-26.851-3.693-40.012c5.741-13.161,17.651-22.327,31.845-24.509l9.837-1.519v-16.854l-9.35-1.805
				c-14.101-2.711-25.65-12.313-30.905-25.676c-5.246-13.371-3.307-28.269,5.179-39.852l5.892-8.024l-11.919-11.919l-7.89,5.338
				c-11.877,8.058-26.825,9.434-40.003,3.693c-13.161-5.741-22.327-17.651-24.509-31.845l-1.519-9.837h-16.854l-2.711,14.059
				c-2.652,13.799-11.986,25.239-24.962,30.619c-12.968,5.372-27.656,3.878-39.29-3.995l-11.86-8.033l-11.919,11.919l5.884,8.024
				c8.494,11.583,10.433,26.481,5.187,39.852c-5.254,13.362-16.804,22.964-30.905,25.676l-9.35,1.805v16.854l9.837,1.519
				C149.932,316.744,161.842,325.91,167.583,339.071z M251.803,251.804c27.774,0,50.361,22.587,50.361,50.361
				c0,27.774-22.587,50.361-50.361,50.361c-27.774,0-50.361-22.587-50.361-50.361C201.443,274.391,224.029,251.804,251.803,251.804z
				"/>
			<path d="M0,476.856c0,14.756,12.003,26.75,26.75,26.75h450.107c14.747,0,26.75-11.994,26.75-26.75V117.507H0V476.856z
				 M109.115,289.254c0-4.029,2.854-7.487,6.807-8.242l16.157-3.106c8.419-1.62,15.318-7.353,18.449-15.335
				c3.139-7.982,1.981-16.871-3.097-23.787l-10.139-13.832c-2.451-3.341-2.098-7.965,0.831-10.895l21.915-21.915
				c2.845-2.845,7.311-3.265,10.634-1.016l17.601,11.919c7.05,4.776,15.595,5.64,23.46,2.384
				c7.865-3.257,13.295-9.913,14.898-18.273l4.012-20.875c0.764-3.945,4.222-6.807,8.242-6.807h30.997
				c4.138,0,7.663,3.022,8.293,7.118l2.61,16.955c1.301,8.477,6.773,15.578,14.638,19.011c7.848,3.416,16.787,2.594,23.879-2.207
				l13.631-9.224c3.332-2.258,7.789-1.83,10.635,1.016l21.915,21.915c2.929,2.929,3.282,7.554,0.831,10.895l-10.148,13.832
				c-5.07,6.916-6.228,15.805-3.089,23.787c3.131,7.982,10.03,13.715,18.449,15.335l16.157,3.106
				c3.953,0.755,6.807,4.214,6.807,8.242v30.989c0,4.146-3.022,7.663-7.118,8.293l-16.955,2.61
				c-8.469,1.309-15.578,6.773-19.011,14.63c-3.425,7.865-2.602,16.787,2.207,23.888l9.224,13.623
				c2.258,3.332,1.838,7.797-1.016,10.643l-21.907,21.915c-2.929,2.938-7.563,3.299-10.903,0.831l-9.728-7.134
				c-7.059-5.179-16.099-6.27-24.215-2.921c-8.1,3.357-13.723,10.525-15.058,19.187l-1.838,11.935
				c-0.63,4.088-4.155,7.109-8.293,7.109h-30.997c-4.021,0-7.479-2.854-8.242-6.807l-3.106-16.157
				c-1.612-8.419-7.344-15.318-15.326-18.449c-7.982-3.131-16.871-1.964-23.787,3.097l-13.832,10.139
				c-3.341,2.459-7.974,2.107-10.903-0.831l-21.907-21.915c-2.854-2.845-3.273-7.311-1.016-10.643l9.224-13.623
				c4.809-7.101,5.632-16.023,2.207-23.888c-3.433-7.856-10.542-13.32-19.011-14.63l-16.955-2.61
				c-4.096-0.63-7.118-4.146-7.118-8.293V289.254z"/>
		</g>
	</g>
</g>
<g>
</g>
<g>
</g>
<g>
</g>
<g>
</g>
<g>
</g>
<g>
</g>
<g>
</g>
<g>
</g>
<g>
</g>
<g>
</g>
<g>
</g>
<g>
</g>
<g>
</g>
<g>
</g>
<g>
</g>
</svg>
